<svg width="47" height="47" viewBox="0 0 47 47" fill="none" xmlns="http://www.w3.org/2000/svg">
<path d="M27.4656 6.79591L30.7659 13.1262C31.0114 13.5922 31.3638 13.9934 31.7942 14.297C32.2246 14.6005 32.7209 14.7978 33.2422 14.8726L40.2129 15.8273C43.9406 16.3413 45.3859 20.937 42.629 23.4927L37.8556 27.8974C37.4492 28.2717 37.1442 28.7427 36.9688 29.2666C36.7934 29.7905 36.7534 30.3502 36.8524 30.8937L38.0171 37.3532C38.6649 40.9517 34.921 43.757 31.6354 42.112L24.9732 38.8073C24.5146 38.5827 24.0107 38.4659 23.5 38.4659C22.9893 38.4659 22.4854 38.5827 22.0269 38.8073L15.3646 42.112C12.0775 43.7423 8.33517 40.9517 8.98288 37.3532L10.1476 30.8922C10.3532 29.7907 9.97135 28.6597 9.14592 27.896L4.37101 23.4927C1.61417 20.9517 3.05941 16.3398 6.7871 15.8258L13.7578 14.8711C14.2807 14.801 14.7789 14.6056 15.21 14.3015C15.6412 13.9975 15.9925 13.5938 16.2341 13.1248L19.5359 6.79591C21.2161 3.60872 25.7986 3.60872 27.4642 6.79591" fill="#FCD53F"/>
</svg>
