<svg width="65" height="66" viewBox="0 0 65 66" fill="none" xmlns="http://www.w3.org/2000/svg">
<path d="M23.4801 66L22.1936 55.44C21.4967 55.165 20.84 54.835 20.2235 54.45C19.607 54.065 19.0039 53.6525 18.4142 53.2125L8.84526 57.3375L0 41.6625L8.28238 35.2275C8.22877 34.8425 8.20197 34.4713 8.20197 34.1138V31.8863C8.20197 31.5288 8.22877 31.1575 8.28238 30.7725L0 24.3375L8.84526 8.6625L18.4142 12.7875C19.0039 12.3475 19.6204 11.935 20.2637 11.55C20.907 11.165 21.5503 10.835 22.1936 10.56L23.4801 0H41.1706L42.4572 10.56C43.1541 10.835 43.8108 11.165 44.4273 11.55C45.0438 11.935 45.6469 12.3475 46.2366 12.7875L55.8055 8.6625L64.6508 24.3375L56.3684 30.7725C56.422 31.1575 56.4488 31.5288 56.4488 31.8863V34.1138C56.4488 34.4713 56.3952 34.8425 56.288 35.2275L64.5704 41.6625L55.7251 57.3375L46.2366 53.2125C45.6469 53.6525 45.0304 54.065 44.3871 54.45C43.7438 54.835 43.1005 55.165 42.4572 55.44L41.1706 66H23.4801ZM29.1089 59.4H35.4614L36.5872 50.655C38.249 50.215 39.7903 49.5688 41.2109 48.7163C42.6315 47.8638 43.9314 46.8325 45.1108 45.6225L53.0715 49.005L56.2076 43.395L49.2922 38.0325C49.5602 37.2625 49.7479 36.4513 49.8551 35.5988C49.9623 34.7463 50.0159 33.88 50.0159 33C50.0159 32.12 49.9623 31.2538 49.8551 30.4013C49.7479 29.5488 49.5602 28.7375 49.2922 27.9675L56.2076 22.605L53.0715 16.995L45.1108 20.46C43.9314 19.195 42.6315 18.1363 41.2109 17.2838C39.7903 16.4313 38.249 15.785 36.5872 15.345L35.5419 6.6H29.1893L28.0636 15.345C26.4018 15.785 24.8605 16.4313 23.4399 17.2838C22.0193 18.1363 20.7193 19.1675 19.54 20.3775L11.5792 16.995L8.4432 22.605L15.3586 27.885C15.0905 28.71 14.9029 29.535 14.7957 30.36C14.6885 31.185 14.6349 32.065 14.6349 33C14.6349 33.88 14.6885 34.7325 14.7957 35.5575C14.9029 36.3825 15.0905 37.2075 15.3586 38.0325L8.4432 43.395L11.5792 49.005L19.54 45.54C20.7193 46.805 22.0193 47.8638 23.4399 48.7163C24.8605 49.5688 26.4018 50.215 28.0636 50.655L29.1089 59.4ZM32.4862 44.55C35.5955 44.55 38.249 43.4225 40.4469 41.1675C42.6449 38.9125 43.7438 36.19 43.7438 33C43.7438 29.81 42.6449 27.0875 40.4469 24.8325C38.249 22.5775 35.5955 21.45 32.4862 21.45C29.3234 21.45 26.6564 22.5775 24.4853 24.8325C22.3142 27.0875 21.2286 29.81 21.2286 33C21.2286 36.19 22.3142 38.9125 24.4853 41.1675C26.6564 43.4225 29.3234 44.55 32.4862 44.55Z" fill="#1D1B20"/>
</svg>
