<svg width="46" height="46" viewBox="0 0 46 46" fill="none" xmlns="http://www.w3.org/2000/svg">
<path d="M30.3136 40.0813L15.662 32.7555M15.662 32.7555L1.01045 40.0813V8.33623L15.662 1.01045M15.662 32.7555V1.01045M15.662 1.01045L30.3136 8.33623M30.3136 8.33623L44.9651 1.01045V19.3249M30.3136 8.33623V21.7668M40.0813 44.9651V44.9895" stroke="black" stroke-width="2" stroke-linecap="round" stroke-linejoin="round"/>
<path d="M40.0812 37.6393C41.1759 37.6358 42.2378 37.2652 43.097 36.5867C43.9561 35.9083 44.5628 34.9612 44.8199 33.8972C45.0771 32.8331 44.9698 31.7135 44.5154 30.7176C44.0609 29.7217 43.2854 28.907 42.3132 28.404C41.3417 27.9063 40.2304 27.752 39.1602 27.9662C38.0899 28.1803 37.1235 28.7503 36.4183 29.5834" stroke="black" stroke-width="2" stroke-linecap="round" stroke-linejoin="round"/>
</svg>
