<svg width="82" height="82" viewBox="0 0 82 82" fill="none" xmlns="http://www.w3.org/2000/svg">
<path fill-rule="evenodd" clip-rule="evenodd" d="M41 77.08C50.569 77.08 59.7461 73.2787 66.5124 66.5124C73.2787 59.7461 77.08 50.569 77.08 41C77.08 31.431 73.2787 22.2539 66.5124 15.4876C59.7461 8.72127 50.569 4.92 41 4.92C31.431 4.92 22.2539 8.72127 15.4876 15.4876C8.72127 22.2539 4.92 31.431 4.92 41C4.92 50.569 8.72127 59.7461 15.4876 66.5124C22.2539 73.2787 31.431 77.08 41 77.08ZM41 82C18.3557 82 0 63.6443 0 41C0 18.3557 18.3557 0 41 0C63.6443 0 82 18.3557 82 41C82 63.6443 63.6443 82 41 82ZM41 23.37C40.3001 23.37 39.607 23.5079 38.9603 23.7757C38.3136 24.0436 37.7261 24.4362 37.2311 24.9311C36.7362 25.4261 36.3436 26.0136 36.0757 26.6603C35.8079 27.307 35.67 28.0001 35.67 28.7V43.05C35.67 43.7499 35.8079 44.443 36.0757 45.0897C36.3436 45.7364 36.7362 46.3239 37.2311 46.8189C37.7261 47.3138 38.3136 47.7064 38.9603 47.9743C39.607 48.2421 40.3001 48.38 41 48.38C41.6999 48.38 42.393 48.2421 43.0397 47.9743C43.6864 47.7064 44.2739 47.3138 44.7689 46.8189C45.2638 46.3239 45.6564 45.7364 45.9243 45.0897C46.1921 44.443 46.33 43.7499 46.33 43.05V28.7C46.33 27.2864 45.7684 25.9307 44.7689 24.9311C43.7693 23.9316 42.4136 23.37 41 23.37ZM43.46 61.336V67.65H38.54V61.336C34.1112 60.7402 30.0492 58.5573 27.1084 55.1927C24.1676 51.8281 22.5478 47.5105 22.55 43.0418V36.9H27.47V43.0418C27.47 44.8186 27.82 46.578 28.4999 48.2195C29.1799 49.861 30.1765 51.3526 31.4328 52.609C32.6892 53.8653 34.1808 54.8619 35.8223 55.5419C37.4638 56.2218 39.2232 56.5718 41 56.5718C42.7768 56.5718 44.5362 56.2218 46.1777 55.5419C47.8192 54.8619 49.3108 53.8653 50.5672 52.609C51.8235 51.3526 52.8201 49.861 53.5001 48.2195C54.18 46.578 54.53 44.8186 54.53 43.0418V36.9H59.45V43.0418C59.4522 47.5105 57.8324 51.8281 54.8916 55.1927C51.9508 58.5573 47.8888 60.7402 43.46 61.336ZM41 18.45C43.7185 18.45 46.3256 19.5299 48.2478 21.4522C50.1701 23.3744 51.25 25.9815 51.25 28.7V43.05C51.25 45.7685 50.1701 48.3756 48.2478 50.2978C46.3256 52.2201 43.7185 53.3 41 53.3C38.2815 53.3 35.6744 52.2201 33.7522 50.2978C31.8299 48.3756 30.75 45.7685 30.75 43.05V28.7C30.75 25.9815 31.8299 23.3744 33.7522 21.4522C35.6744 19.5299 38.2815 18.45 41 18.45Z" fill="black"/>
</svg>
