<svg width="60" height="66" viewBox="0 0 60 66" fill="none" xmlns="http://www.w3.org/2000/svg">
<path d="M29.7 13.2C27.885 13.2 26.3313 12.5538 25.0388 11.2613C23.7463 9.96875 23.1 8.415 23.1 6.6C23.1 4.785 23.7463 3.23125 25.0388 1.93875C26.3313 0.64625 27.885 0 29.7 0C31.515 0 33.0688 0.64625 34.3613 1.93875C35.6538 3.23125 36.3 4.785 36.3 6.6C36.3 8.415 35.6538 9.96875 34.3613 11.2613C33.0688 12.5538 31.515 13.2 29.7 13.2ZM19.8 66V23.1H0V16.5H59.4V23.1H39.6V66H33V46.2H26.4V66H19.8Z" fill="#1D1B20"/>
</svg>
